# xmcd
#
# Track frame offsets:
#	150
#	29220
#	48783
#	75842
#	92000
#	120566
#	139604
#	169015
#	196246
#
# Disc length: 3184 seconds
#
# Revision: 0
# Processed by: cddbd v1.5.2PL0 Copyright (c) Steve Scherf et al.
# Submitted via: dBpowerAMP V4.0
#
DISCID=680c6e09
DTITLE=Hesam - Ba Ghodsian 2
DYEAR=1900
DGENRE=Erfan
TTITLE0=Elahi
TTITLE1=Yar madad
TTITLE2=Ya rasolalah
TTITLE3=Janane ma Mohamad
TTITLE4=Toloe mah
TTITLE5=Kaabeh
TTITLE6=Khalege yekta
TTITLE7=Ya Mohamad
TTITLE8=Monajad
EXTD=
EXTT0=
EXTT1=
EXTT2=
EXTT3=
EXTT4=
EXTT5=
EXTT6=
EXTT7=
EXTT8=
PLAYORDER=
